<svg xmlns="http://www.w3.org/2000/svg" viewBox="0 0 90 45"><path fill="#FFF" d="M4.7 26c0 1.7.5 2.9 1.3 3.7.8.8 2.1 1.2 3.7 1.2 1.4 0 2.8-.3 4.1-.8.2.3.3.7.4 1.1.1.4.2.9.2 1.3-.7.3-1.4.5-2.2.6s-1.7.2-2.6.2c-1.4 0-2.6-.2-3.6-.6-1-.4-1.8-.9-2.5-1.7-.7-.7-1.1-1.6-1.4-2.5s-.5-2.1-.5-3.2.1-2.2.4-3.2.7-1.9 1.3-2.6 1.4-1.3 2.3-1.8c.9-.4 2-.7 3.3-.7 1.1 0 2 .2 2.8.5.8.4 1.5.9 2 1.5s1 1.4 1.2 2.3c.3.9.4 1.8.4 2.9v.9c0 .3 0 .6-.1.8H4.7v.1zm7.7-2.3c0-.6-.1-1.1-.2-1.6s-.4-1-.7-1.3c-.3-.4-.7-.7-1.1-.9-.5-.2-1-.3-1.6-.3-1.2 0-2.2.4-2.8 1.1-.7.7-1.1 1.8-1.2 3.1h7.6v-.1z"/><g fill="#FFF"><path d="M17 8.7c1-.1 2.1-.2 3.1-.2 1.1-.1 2.1-.1 3.2-.1s2.3.1 3.4.3c1.2.3 2.3.7 3.2 1.3s1.7 1.5 2.3 2.6c.6 1.1.9 2.5.9 4.3 0 1.8-.3 3.2-.9 4.3-.6 1.1-1.3 1.9-2.3 2.6-.9.5-1.9.9-3.1 1.2s-2.2.3-3.3.3h-.8c-.3 0-.5 0-.7-.1V33c-.4.1-.8.1-1.2.1h-2.4c-.4 0-.9-.1-1.3-.1L17 8.7zm4.9 12.5c.3 0 .5.1.8.1h.9c.6 0 1.1-.1 1.6-.2s1-.4 1.4-.7c.4-.3.7-.8 1-1.3.2-.5.4-1.2.4-2s-.1-1.5-.4-2.1c-.2-.6-.6-1-1-1.4-.4-.3-.9-.6-1.4-.7-.5-.1-1.1-.2-1.6-.2h-.7c-.2 0-.5 0-.9.1l-.1 8.4zM44.3 21.6c0-.5-.1-1-.3-1.3s-.4-.6-.7-.8c-.3-.2-.7-.3-1.2-.4s-1-.1-1.5-.1c-1.2 0-2.5.2-3.9.7-.3-.6-.5-1.1-.7-1.6s-.2-1.1-.2-1.9c1-.3 2-.6 3-.7 1-.2 1.9-.2 2.8-.2 2.3 0 4.2.6 5.5 1.7 1.3 1.1 2 2.9 2 5.4v10.1c-.8.2-1.7.5-2.9.7s-2.4.3-3.8.3c-1.1 0-2.2-.1-3.1-.3-1-.2-1.8-.5-2.5-1s-1.2-1.1-1.6-1.8c-.4-.7-.6-1.6-.6-2.7s.2-2 .7-2.7 1.1-1.3 1.8-1.7c.7-.4 1.5-.8 2.4-.9.9-.2 1.8-.3 2.7-.3.7 0 1.4 0 2.2.1v-.6h-.1zm0 3.4c-.3 0-.6-.1-.9-.1-.3 0-.6-.1-.8-.1-1.1 0-2 .2-2.6.6s-1 1-1 1.9c0 .6.1 1 .4 1.3.2.3.5.5.9.7.3.1.7.2 1.1.3.4 0 .7.1 1 .1s.7 0 1-.1.6-.1.9-.2V25zM52.5 15.6c.3-.1.7-.1 1-.2.3 0 .6-.1 1-.1.3 0 .7 0 1 .1.3 0 .6.1 1 .2.1.1.1.3.2.5s.1.4.2.7c0 .2.1.5.1.7s.1.4.1.6c.5-.7 1.1-1.3 1.8-1.9.7-.6 1.6-.8 2.7-.8h.8c.3 0 .5.1.6.1 0 .2.1.5.1.8v.9c0 .4 0 .8-.1 1.2 0 .4-.1.9-.2 1.3-.2 0-.5-.1-.8-.1h-.6c-.4 0-.8 0-1.3.1s-.9.3-1.3.6-.8.8-1.1 1.5-.4 1.6-.4 2.8V33c-.4.1-.8.1-1.2.1h-2.4c-.4 0-.8-.1-1.2-.1V15.6zM65.8 19.3h-2.2l-.2-.7 6.3-8h.8v5.1h4.1c.1.3.1.6.1.9V18.3c0 .3-.1.6-.1 1h-4.1v6.8c0 .7.1 1.3.2 1.7.1.4.3.8.5 1s.5.4.8.5.7.1 1.1.1c.3 0 .7 0 1-.1s.6-.1.9-.2c.2.4.3.9.3 1.3.1.5.1.9.1 1.2v1.1c-1 .2-2.1.4-3.2.4-2 0-3.6-.5-4.7-1.4s-1.6-2.5-1.6-4.7v-7.7h-.1zM80.9 25.4c-1.3-.4-2.2-.9-2.9-1.6-.7-.7-1.1-1.8-1.1-3.2 0-1.7.6-3 1.8-4 1.2-1 2.9-1.4 5-1.4.9 0 1.7.1 2.6.2.9.2 1.7.4 2.6.7 0 .6-.2 1.2-.3 1.8-.2.6-.4 1.2-.6 1.6-.5-.2-1.1-.4-1.8-.6s-1.3-.3-2.1-.3-1.4.1-1.8.4c-.4.2-.6.6-.6 1.1s.2.8.5 1 .7.4 1.3.6l1.9.6c.6.2 1.2.4 1.7.7.5.3.9.6 1.3 1s.6.9.8 1.4c.2.6.3 1.2.3 2.1 0 .8-.2 1.6-.5 2.3-.3.7-.9 1.3-1.5 1.9-.7.5-1.5.9-2.4 1.2-.9.3-2 .5-3.2.5h-1.5c-.4 0-.9-.1-1.3-.2l-1.2-.3c-.4-.1-.8-.3-1.3-.4 0-.6.2-1.2.3-1.8.2-.6.4-1.2.7-1.8.7.3 1.4.5 2.1.7s1.4.2 2.1.2c.3 0 .7 0 1-.1s.7-.2 1-.3c.3-.1.6-.3.8-.6.2-.2.3-.5.3-.9 0-.5-.2-.9-.5-1.2s-.8-.5-1.4-.7l-2.1-.6z"/></g></svg>
